<?xml version="1.0" encoding="UTF-8"?>
<!DOCTYPE svg PUBLIC "-//W3C//DTD SVG 1.1//EN" "http://www.w3.org/Graphics/SVG/1.1/DTD/svg11.dtd">
<svg xmlns="http://www.w3.org/2000/svg" version="1.1" width="1200px" height="1200px" style="shape-rendering:geometricPrecision; text-rendering:geometricPrecision; image-rendering:optimizeQuality; fill-rule:evenodd; clip-rule:evenodd" xmlns:xlink="http://www.w3.org/1999/xlink">
<g><path style="opacity:0.99" fill="#8c1dcc" d="M 492.5,343.5 C 494.496,395.823 495.162,448.489 494.5,501.5C 454.726,500.307 417.06,490.807 381.5,473C 380.978,472.439 380.645,471.772 380.5,471C 402.179,414.504 439.512,372.004 492.5,343.5 Z"/></g>
<g><path style="opacity:0.974" fill="#8c1dcb" d="M 455.5,345.5 C 457.527,345.338 459.527,345.505 461.5,346C 418.169,375.831 387.169,415.331 368.5,464.5C 348.314,454.177 330.48,440.511 315,423.5C 314.333,422.833 314.333,422.167 315,421.5C 353.869,381.646 400.702,356.312 455.5,345.5 Z"/></g>
<g><path style="opacity:0.935" fill="#8b1dcb" d="M 744.5,352.5 C 747.794,352.259 750.794,353.092 753.5,355C 761.914,364.417 770.748,373.584 780,382.5C 780.667,385.167 780.667,387.833 780,390.5C 770.137,400.697 759.971,410.53 749.5,420C 741.789,420.622 738.622,417.122 740,409.5C 744.133,404.366 748.633,399.532 753.5,395C 724.833,394.667 696.167,394.333 667.5,394C 662.383,392.268 660.55,388.768 662,383.5C 662.833,381.333 664.333,379.833 666.5,379C 695.5,378.667 724.5,378.333 753.5,378C 748.633,373.468 744.133,368.634 740,363.5C 738.393,358.438 739.893,354.772 744.5,352.5 Z"/></g>
<g><path style="opacity:0.904" fill="#8c1dcb" d="M 585.5,378.5 C 596.632,378.782 599.299,383.616 593.5,393C 584.058,395.702 579.891,392.202 581,382.5C 582.397,380.93 583.897,379.596 585.5,378.5 Z"/></g>
<g><path style="opacity:0.909" fill="#8c1dcb" d="M 607.5,378.5 C 613.905,377.527 617.571,380.193 618.5,386.5C 616.471,393.34 612.137,395.507 605.5,393C 600.255,387.514 600.922,382.68 607.5,378.5 Z"/></g>
<g><path style="opacity:0.903" fill="#8b1dcb" d="M 637.5,378.5 C 643.373,378.029 647.04,380.696 648.5,386.5C 645.979,393.95 641.312,395.783 634.5,392C 631.127,386.391 632.127,381.891 637.5,378.5 Z"/></g>
<g><path style="opacity:0.983" fill="#8b1ccb" d="M 303.5,433.5 C 304.552,433.351 305.552,433.517 306.5,434C 323.371,451.41 342.038,466.41 362.5,479C 342.851,538.957 338.018,600.124 348,662.5C 351.188,682.085 356.021,701.251 362.5,720C 352.242,726.585 342.242,733.585 332.5,741C 322.973,748.866 313.806,757.033 305,765.5C 274.488,730.464 255.155,689.798 247,643.5C 235.029,564.956 253.862,494.956 303.5,433.5 Z M 295.5,488.5 C 300.777,487.785 303.777,489.952 304.5,495C 304.184,501.82 301.018,506.654 295,509.5C 290.893,508.895 288.726,506.562 288.5,502.5C 289.306,496.888 291.639,492.221 295.5,488.5 Z M 281.5,526.5 C 287.678,525.032 291.011,527.365 291.5,533.5C 281.24,575.922 280.906,618.422 290.5,661C 290.628,665.544 288.461,668.377 284,669.5C 281.532,668.896 279.532,667.562 278,665.5C 266.448,620.086 266.781,574.753 279,529.5C 280.045,528.627 280.878,527.627 281.5,526.5 Z"/></g>
<g><path style="opacity:0.97" fill="#8b1ccb" d="M 659.5,436.5 C 680.442,435.78 692.108,445.78 694.5,466.5C 691.198,489.99 677.864,499.49 654.5,495C 643.513,490.854 637.18,483.021 635.5,471.5C 627.504,471.329 620.671,473.996 615,479.5C 608.137,496.421 601.471,513.421 595,530.5C 589.103,540.193 580.603,546.026 569.5,548C 544.502,548.5 519.502,548.667 494.5,548.5C 494.5,553.5 494.5,558.5 494.5,563.5C 538.501,563.667 582.501,563.5 626.5,563C 631,561.167 634.167,558 636,553.5C 635.719,535.865 643.886,524.365 660.5,519C 674.163,518.5 687.829,518.333 701.5,518.5C 708.327,499.252 721.66,492.419 741.5,498C 758.711,507.295 763.877,521.129 757,539.5C 746.037,556.147 731.537,559.981 713.5,551C 707.363,546.538 703.363,540.704 701.5,533.5C 689.162,533.333 676.829,533.5 664.5,534C 659.815,535.35 656.315,538.183 654,542.5C 654.119,561.797 644.952,573.963 626.5,579C 582.501,579.5 538.501,579.667 494.5,579.5C 494.5,583.5 494.5,587.5 494.5,591.5C 589.833,591.5 685.167,591.5 780.5,591.5C 783.862,579.805 791.529,572.638 803.5,570C 824.475,568.809 836.142,578.643 838.5,599.5C 836.366,620.575 824.699,630.408 803.5,629C 791.139,626.804 783.472,619.638 780.5,607.5C 685.167,607.5 589.833,607.5 494.5,607.5C 494.5,611.5 494.5,615.5 494.5,619.5C 538.835,619.333 583.168,619.5 627.5,620C 638.737,622.901 646.57,629.735 651,640.5C 651.928,645.855 652.928,651.189 654,656.5C 656.429,661.266 660.263,664.1 665.5,665C 677.495,665.5 689.495,665.667 701.5,665.5C 707.417,648.368 719.417,641.201 737.5,644C 751.5,648.809 759.167,658.642 760.5,673.5C 758.121,691.379 747.954,701.379 730,703.5C 714.952,702.575 705.452,694.909 701.5,680.5C 687.829,680.667 674.163,680.5 660.5,680C 650.206,677.441 643.039,671.274 639,661.5C 637.971,654.647 636.304,647.98 634,641.5C 632.062,638.894 629.562,637.061 626.5,636C 582.501,635.5 538.501,635.333 494.5,635.5C 494.5,640.5 494.5,645.5 494.5,650.5C 519.169,650.333 543.836,650.5 568.5,651C 578.573,652.619 586.739,657.453 593,665.5C 600.553,682.607 607.553,699.94 614,717.5C 619.344,724.567 626.511,727.901 635.5,727.5C 638.631,711.708 648.298,703.375 664.5,702.5C 682.833,704.167 692.833,714.167 694.5,732.5C 692.137,753.363 680.47,763.196 659.5,762C 648.412,760.077 640.745,753.911 636.5,743.5C 617.669,743.848 604.503,735.515 597,718.5C 591.53,703.755 585.863,689.088 580,674.5C 577.072,670.619 573.239,668.119 568.5,667C 543.836,666.5 519.169,666.333 494.5,666.5C 494.5,672.167 494.5,677.833 494.5,683.5C 452.564,684.567 412.897,694.567 375.5,713.5C 368.645,695.081 363.812,676.081 361,656.5C 352.386,598.435 356.886,541.435 374.5,485.5C 402.365,499.176 431.699,508.343 462.5,513C 473.131,514.345 483.798,515.179 494.5,515.5C 494.5,521.167 494.5,526.833 494.5,532.5C 519.502,532.667 544.502,532.5 569.5,532C 574.888,529.945 579.054,526.445 582,521.5C 587.912,503.684 594.912,486.351 603,469.5C 612.155,460.275 623.322,455.608 636.5,455.5C 640.951,445.128 648.618,438.795 659.5,436.5 Z"/></g>
<g><path style="opacity:0.951" fill="#8b1dcc" d="M 919.5,494.5 C 921.989,494.298 924.323,494.798 926.5,496C 935.667,505.167 944.833,514.333 954,523.5C 956,526.833 956,530.167 954,533.5C 944.833,542.667 935.667,551.833 926.5,561C 917.339,563.509 913.505,560.009 915,550.5C 919.5,546 924,541.5 928.5,537C 920.167,536.667 911.833,536.333 903.5,536C 897.271,531.829 896.938,527.163 902.5,522C 911.167,521.667 919.833,521.333 928.5,521C 922.558,515.254 917.558,508.92 913.5,502C 914.608,498.732 916.608,496.232 919.5,494.5 Z"/></g>
<g><path style="opacity:0.923" fill="#8c1dcc" d="M 827.5,521.5 C 836.157,519.679 840.323,523.012 840,531.5C 837.565,536.224 833.731,537.724 828.5,536C 822.231,531.657 821.898,526.824 827.5,521.5 Z"/></g>
<g><path style="opacity:0.913" fill="#8c1dcc" d="M 849.5,521.5 C 860.528,520.401 863.861,524.901 859.5,535C 850.479,538.949 845.979,536.116 846,526.5C 846.997,524.677 848.164,523.01 849.5,521.5 Z"/></g>
<g><path style="opacity:0.911" fill="#8b1ccb" d="M 879.5,521.5 C 888.791,519.702 892.624,523.368 891,532.5C 886.7,537.446 882.033,537.779 877,533.5C 874.668,528.83 875.501,524.83 879.5,521.5 Z"/></g>
<g><path style="opacity:0.969" fill="#8b1ccc" d="M 834.5,636.5 C 843.34,636.84 846.174,641.173 843,649.5C 838.853,653.978 834.353,658.145 829.5,662C 850.833,662.333 872.167,662.667 893.5,663C 900.167,667.667 900.167,672.333 893.5,677C 872.167,677.333 850.833,677.667 829.5,678C 834,682.5 838.5,687 843,691.5C 846.139,698.555 843.973,702.888 836.5,704.5C 834.39,703.946 832.39,703.112 830.5,702C 822.667,694.167 814.833,686.333 807,678.5C 802.13,674.372 801.463,669.706 805,664.5C 814.453,654.541 824.286,645.208 834.5,636.5 Z"/></g>
<g><path style="opacity:0.922" fill="#8b1dcb" d="M 909.5,662.5 C 916.237,661.195 920.237,663.862 921.5,670.5C 918.644,677.655 913.81,679.322 907,675.5C 904.458,670.438 905.292,666.105 909.5,662.5 Z"/></g>
<g><path style="opacity:0.918" fill="#8c1dcb" d="M 939.5,662.5 C 946.283,661.213 950.283,663.88 951.5,670.5C 950.632,675.2 947.798,677.534 943,677.5C 937.996,677.498 935.163,674.998 934.5,670C 935.324,666.827 936.991,664.327 939.5,662.5 Z"/></g>
<g><path style="opacity:0.99" fill="#8c1dcc" d="M 479.5,697.5 C 484.5,697.5 489.5,697.5 494.5,697.5C 494.833,750.171 494.5,802.838 493.5,855.5C 439.842,827.333 402.176,784.833 380.5,728C 383.569,724.952 387.235,722.619 391.5,721C 419.701,708.452 449.035,700.618 479.5,697.5 Z"/></g>
<g><path style="opacity:0.975" fill="#8c1dcc" d="M 365.5,734.5 C 366.5,734.5 367.5,734.5 368.5,734.5C 387.159,783.633 418.159,823.133 461.5,853C 404.026,844.348 355.193,819.181 315,777.5C 314.333,776.833 314.333,776.167 315,775.5C 330.283,759.696 347.116,746.029 365.5,734.5 Z"/></g>
<g><path style="opacity:0.933" fill="#8b1ccb" d="M 600.5,778.5 C 608.197,779.033 611.03,783.033 609,790.5C 604.5,795 600,799.5 595.5,804C 641.5,804.333 687.5,804.667 733.5,805C 738.906,806.98 740.739,810.814 739,816.5C 737.786,818.049 736.286,819.215 734.5,820C 688.167,820.333 641.833,820.667 595.5,821C 600.367,825.532 604.867,830.366 609,835.5C 610.378,843.122 607.211,846.622 599.5,846C 589.083,836.585 578.916,826.752 569,816.5C 568.333,813.833 568.333,811.167 569,808.5C 579.117,797.878 589.617,787.878 600.5,778.5 Z"/></g>
<g><path style="opacity:0.92" fill="#8c1ccb" d="M 759.5,804.5 C 767.197,805.033 770.03,809.033 768,816.5C 763.333,821.833 758.667,821.833 754,816.5C 752.036,810.532 753.869,806.532 759.5,804.5 Z"/></g>
<g><path style="opacity:0.911" fill="#8b1dcb" d="M 789.5,804.5 C 796,804.83 799.166,808.163 799,814.5C 796.983,819.924 793.15,821.758 787.5,820C 780.494,813.855 781.16,808.689 789.5,804.5 Z"/></g>
<g><path style="opacity:0.911" fill="#8b1dcb" d="M 810.5,804.5 C 818.717,804.547 821.883,808.547 820,816.5C 815.076,821.756 810.076,821.756 805,816.5C 803.036,810.532 804.869,806.532 810.5,804.5 Z"/></g>
</svg>
